<svg xmlns="http://www.w3.org/2000/svg" width="70.00000000000001" height="33.0523759941647"><svg class="css-ze2te4 css-qd6ojx" viewBox="0 0 70.00000000000001 33.0523759941647"><path xmlns="http://www.w3.org/2000/svg" fill="#111" d="M55.488 33.052c4.278-1.234 7.354-5.09 7.509-9.62 5.833-2.76 7.147-8.363 6.991-11.164C69.955 2.705 61.933.062 57.66 0c-4.848 0-7.868 2.512-9.521 4.54A14.57 14.57 0 0 0 37.564 0C32.213 0 27.288 2.996 24.75 7.625a10 10 0 0 0-3.214-.53c-3.928 0-7.51 2.282-9.263 5.73a10 10 0 0 0-1.845-.177C4.678 12.647 0 17.326 0 23.076c0 4.682 3.136 8.709 7.528 9.976zm-2.138-3.461-.74.086H10.405l-.74-.086c-3.329-.39-5.838-3.191-5.838-6.514a6.61 6.61 0 0 1 6.601-6.601c.755 0 1.509.145 2.305.445l1.925.724.584-1.972c.84-2.842 3.37-4.75 6.294-4.75 1.1 0 2.18.296 3.215.882l1.942 1.1.79-2.089c1.582-4.18 5.633-6.987 10.08-6.987 5.946 0 10.784 4.837 10.78 10.826l-.012.242-.044 2.588 2.488-.716c.694-.2 1.27-.294 1.81-.294a6.605 6.605 0 0 1 6.597 6.6c.002 3.325-2.507 6.126-5.832 6.516m8.993-10.157c-1.482-3.957-5.29-6.786-9.757-6.786q-.27 0-.54.017a14.5 14.5 0 0 0-1.567-4.867c.874-1.352 3.089-3.969 7.143-3.969.874.02 8.537.424 8.537 8.5l.003.124c.005.049.23 4.438-3.82 6.981" class="css-1mun45u"/></svg><style>@media (prefers-color-scheme:light){:root{filter:none}}@media (prefers-color-scheme:dark){:root{filter:invert(100%)}}</style></svg>