<svg xmlns="http://www.w3.org/2000/svg" opacity="0.47" viewBox="0 0 1422 800"><g fill="none" stroke="#96c3fd" stroke-width="2"><path d="m0 0 32 32" opacity="0.05"/><path d="m32 0 32 32" opacity="0.07"/><path d="m64 0 32 32" opacity="0.09"/><path d="M128 0 96 32" opacity="0.11"/><path d="m128 0 32 32" opacity="0.14"/><path d="m192 0-32 32" opacity="0.16"/><path d="m192 0 32 32" opacity="0.18"/><path d="m224 0 32 32" opacity="0.20"/><path d="m288 0-32 32" opacity="0.22"/><path d="m320 0-32 32" opacity="0.24"/><path d="m320 0 32 32" opacity="0.26"/><path d="m352 0 32 32" opacity="0.29"/><path d="m416 0-32 32" opacity="0.31"/><path d="m416 0 32 32" opacity="0.33"/><path d="m448 0 32 32" opacity="0.35"/><path d="m512 0-32 32" opacity="0.37"/><path d="m512 0 32 32" opacity="0.39"/><path d="m576 0-32 32" opacity="0.41"/><path d="m576 0 32 32" opacity="0.43"/><path d="m608 0 32 32" opacity="0.46"/><path d="m640 0 32 32" opacity="0.48"/><path d="m672 0 32 32" opacity="0.50"/><path d="m736 0-32 32" opacity="0.52"/><path d="m768 0-32 32" opacity="0.54"/><path d="m768 0 32 32" opacity="0.56"/><path d="m800 0 32 32" opacity="0.58"/><path d="m832 0 32 32" opacity="0.61"/><path d="m864 0 32 32" opacity="0.63"/><path d="m896 0 32 32" opacity="0.65"/><path d="m960 0-32 32" opacity="0.67"/><path d="m992 0-32 32" opacity="0.69"/><path d="m1024 0-32 32" opacity="0.71"/><path d="m1056 0-32 32" opacity="0.73"/><path d="m1088 0-32 32" opacity="0.76"/><path d="m1120 0-32 32" opacity="0.78"/><path d="m1120 0 32 32" opacity="0.80"/><path d="m1184 0-32 32" opacity="0.82"/><path d="m1184 0 32 32" opacity="0.84"/><path d="m1216 0 32 32" opacity="0.86"/><path d="m1280 0-32 32" opacity="0.88"/><path d="m1280 0 32 32" opacity="0.91"/><path d="m1344 0-32 32" opacity="0.93"/><path d="m1344 0 32 32" opacity="0.95"/><path d="m1376 0 32 32" opacity="0.97"/><path d="m1440 0-32 32" opacity="0.99"/><path d="M32 32 0 64" opacity="0.05"/><path d="m32 32 32 32" opacity="0.07"/><path d="M96 32 64 64" opacity="0.09"/><path d="m96 32 32 32" opacity="0.11"/><path d="m128 32 32 32" opacity="0.14"/><path d="m160 32 32 32" opacity="0.16"/><path d="m224 32-32 32" opacity="0.18"/><path d="m256 32-32 32" opacity="0.20"/><path d="m288 32-32 32" opacity="0.22"/><path d="m288 32 32 32" opacity="0.24"/><path d="m320 32 32 32" opacity="0.26"/><path d="m352 32 32 32" opacity="0.29"/><path d="m416 32-32 32" opacity="0.31"/><path d="m416 32 32 32" opacity="0.33"/><path d="m448 32 32 32" opacity="0.35"/><path d="m512 32-32 32" opacity="0.37"/><path d="m512 32 32 32" opacity="0.39"/><path d="m544 32 32 32" opacity="0.41"/><path d="m576 32 32 32" opacity="0.43"/><path d="m640 32-32 32" opacity="0.46"/><path d="m672 32-32 32" opacity="0.48"/><path d="m672 32 32 32" opacity="0.50"/><path d="m704 32 32 32" opacity="0.52"/><path d="m768 32-32 32" opacity="0.54"/><path d="m800 32-32 32" opacity="0.56"/><path d="m832 32-32 32" opacity="0.58"/><path d="m832 32 32 32" opacity="0.61"/><path d="m864 32 32 32" opacity="0.63"/><path d="m896 32 32 32" opacity="0.65"/><path d="m928 32 32 32" opacity="0.67"/><path d="m992 32-32 32" opacity="0.69"/><path d="m992 32 32 32" opacity="0.71"/><path d="m1024 32 32 32" opacity="0.73"/><path d="m1056 32 32 32" opacity="0.76"/><path d="m1120 32-32 32" opacity="0.78"/><path d="m1120 32 32 32" opacity="0.80"/><path d="m1184 32-32 32" opacity="0.82"/><path d="m1184 32 32 32" opacity="0.84"/><path d="m1248 32-32 32" opacity="0.86"/><path d="m1248 32 32 32" opacity="0.88"/><path d="m1280 32 32 32" opacity="0.91"/><path d="m1344 32-32 32" opacity="0.93"/><path d="m1376 32-32 32" opacity="0.95"/><path d="m1376 32 32 32" opacity="0.97"/><path d="m1408 32 32 32" opacity="0.99"/><path d="M32 64 0 96" opacity="0.05"/><path d="m32 64 32 32" opacity="0.07"/><path d="M96 64 64 96" opacity="0.09"/><path d="m96 64 32 32" opacity="0.11"/><path d="m160 64-32 32" opacity="0.14"/><path d="m192 64-32 32" opacity="0.16"/><path d="m192 64 32 32" opacity="0.18"/><path d="m224 64 32 32" opacity="0.20"/><path d="m256 64 32 32" opacity="0.22"/><path d="m320 64-32 32" opacity="0.24"/><path d="m320 64 32 32" opacity="0.26"/><path d="m384 64-32 32" opacity="0.29"/><path d="m416 64-32 32" opacity="0.31"/><path d="m416 64 32 32" opacity="0.33"/><path d="m480 64-32 32" opacity="0.35"/><path d="m480 64 32 32" opacity="0.37"/><path d="m512 64 32 32" opacity="0.39"/><path d="m576 64-32 32" opacity="0.41"/><path d="m576 64 32 32" opacity="0.43"/><path d="m640 64-32 32" opacity="0.46"/><path d="m672 64-32 32" opacity="0.48"/><path d="m704 64-32 32" opacity="0.50"/><path d="m704 64 32 32" opacity="0.52"/><path d="m736 64 32 32" opacity="0.54"/><path d="m800 64-32 32" opacity="0.56"/><path d="m832 64-32 32" opacity="0.58"/><path d="m832 64 32 32" opacity="0.61"/><path d="m864 64 32 32" opacity="0.63"/><path d="m928 64-32 32" opacity="0.65"/><path d="m928 64 32 32" opacity="0.67"/><path d="m960 64 32 32" opacity="0.69"/><path d="m992 64 32 32" opacity="0.71"/><path d="m1056 64-32 32" opacity="0.73"/><path d="m1056 64 32 32" opacity="0.76"/><path d="m1088 64 32 32" opacity="0.78"/><path d="m1120 64 32 32" opacity="0.80"/><path d="m1184 64-32 32" opacity="0.82"/><path d="m1184 64 32 32" opacity="0.84"/><path d="m1248 64-32 32" opacity="0.86"/><path d="m1280 64-32 32" opacity="0.88"/><path d="m1312 64-32 32" opacity="0.91"/><path d="m1312 64 32 32" opacity="0.93"/><path d="m1344 64 32 32" opacity="0.95"/><path d="m1408 64-32 32" opacity="0.97"/><path d="m1408 64 32 32" opacity="0.99"/><path d="M32 96 0 128" opacity="0.05"/><path d="m64 96-32 32" opacity="0.07"/><path d="m96 96-32 32" opacity="0.09"/><path d="m128 96-32 32" opacity="0.11"/><path d="m128 96 32 32" opacity="0.14"/><path d="m192 96-32 32" opacity="0.16"/><path d="m192 96 32 32" opacity="0.18"/><path d="m224 96 32 32" opacity="0.20"/><path d="m256 96 32 32" opacity="0.22"/><path d="m320 96-32 32" opacity="0.24"/><path d="m352 96-32 32" opacity="0.26"/><path d="m352 96 32 32" opacity="0.29"/><path d="m384 96 32 32" opacity="0.31"/><path d="m416 96 32 32" opacity="0.33"/><path d="m480 96-32 32" opacity="0.35"/><path d="m512 96-32 32" opacity="0.37"/><path d="m544 96-32 32" opacity="0.39"/><path d="m576 96-32 32" opacity="0.41"/><path d="m608 96-32 32" opacity="0.43"/><path d="m640 96-32 32" opacity="0.46"/><path d="m640 96 32 32" opacity="0.48"/><path d="m704 96-32 32" opacity="0.50"/><path d="m736 96-32 32" opacity="0.52"/><path d="m736 96 32 32" opacity="0.54"/><path d="m800 96-32 32" opacity="0.56"/><path d="m832 96-32 32" opacity="0.58"/><path d="m864 96-32 32" opacity="0.61"/><path d="m896 96-32 32" opacity="0.63"/><path d="m896 96 32 32" opacity="0.65"/><path d="m928 96 32 32" opacity="0.67"/><path d="m992 96-32 32" opacity="0.69"/><path d="m1024 96-32 32" opacity="0.71"/><path d="m1056 96-32 32" opacity="0.73"/><path d="m1088 96-32 32" opacity="0.76"/><path d="m1088 96 32 32" opacity="0.78"/><path d="m1152 96-32 32" opacity="0.80"/><path d="m1152 96 32 32" opacity="0.82"/><path d="m1216 96-32 32" opacity="0.84"/><path d="m1216 96 32 32" opacity="0.86"/><path d="m1248 96 32 32" opacity="0.88"/><path d="m1312 96-32 32" opacity="0.91"/><path d="m1344 96-32 32" opacity="0.93"/><path d="m1376 96-32 32" opacity="0.95"/><path d="m1408 96-32 32" opacity="0.97"/><path d="m1440 96-32 32" opacity="0.99"/><path d="M32 128 0 160" opacity="0.05"/><path d="m32 128 32 32" opacity="0.07"/><path d="m64 128 32 32" opacity="0.09"/><path d="m128 128-32 32" opacity="0.11"/><path d="m160 128-32 32" opacity="0.14"/><path d="m192 128-32 32" opacity="0.16"/><path d="m224 128-32 32" opacity="0.18"/><path d="m224 128 32 32" opacity="0.20"/><path d="m256 128 32 32" opacity="0.22"/><path d="m320 128-32 32" opacity="0.24"/><path d="m352 128-32 32" opacity="0.26"/><path d="m384 128-32 32" opacity="0.29"/><path d="m384 128 32 32" opacity="0.31"/><path d="m448 128-32 32" opacity="0.33"/><path d="m480 128-32 32" opacity="0.35"/><path d="m512 128-32 32" opacity="0.37"/><path d="m544 128-32 32" opacity="0.39"/><path d="m544 128 32 32" opacity="0.41"/><path d="m608 128-32 32" opacity="0.43"/><path d="m608 128 32 32" opacity="0.46"/><path d="m640 128 32 32" opacity="0.48"/><path d="m672 128 32 32" opacity="0.50"/><path d="m704 128 32 32" opacity="0.52"/><path d="m736 128 32 32" opacity="0.54"/><path d="m800 128-32 32" opacity="0.56"/><path d="m832 128-32 32" opacity="0.58"/><path d="m864 128-32 32" opacity="0.61"/><path d="m864 128 32 32" opacity="0.63"/><path d="m896 128 32 32" opacity="0.65"/><path d="m928 128 32 32" opacity="0.67"/><path d="m960 128 32 32" opacity="0.69"/><path d="m992 128 32 32" opacity="0.71"/><path d="m1024 128 32 32" opacity="0.73"/><path d="m1088 128-32 32" opacity="0.76"/><path d="m1120 128-32 32" opacity="0.78"/><path d="m1152 128-32 32" opacity="0.80"/><path d="m1184 128-32 32" opacity="0.82"/><path d="m1184 128 32 32" opacity="0.84"/><path d="m1248 128-32 32" opacity="0.86"/><path d="m1280 128-32 32" opacity="0.88"/><path d="m1280 128 32 32" opacity="0.91"/><path d="m1312 128 32 32" opacity="0.93"/><path d="m1344 128 32 32" opacity="0.95"/><path d="m1408 128-32 32" opacity="0.97"/><path d="m1440 128-32 32" opacity="0.99"/><path d="M32 160 0 192" opacity="0.05"/><path d="m64 160-32 32" opacity="0.07"/><path d="m96 160-32 32" opacity="0.09"/><path d="m96 160 32 32" opacity="0.11"/><path d="m160 160-32 32" opacity="0.14"/><path d="m160 160 32 32" opacity="0.16"/><path d="m224 160-32 32" opacity="0.18"/><path d="m224 160 32 32" opacity="0.20"/><path d="m288 160-32 32" opacity="0.22"/><path d="m320 160-32 32" opacity="0.24"/><path d="m320 160 32 32" opacity="0.26"/><path d="m384 160-32 32" opacity="0.29"/><path d="m416 160-32 32" opacity="0.31"/><path d="m416 160 32 32" opacity="0.33"/><path d="m480 160-32 32" opacity="0.35"/><path d="m480 160 32 32" opacity="0.37"/><path d="m544 160-32 32" opacity="0.39"/><path d="m544 160 32 32" opacity="0.41"/><path d="m576 160 32 32" opacity="0.43"/><path d="m640 160-32 32" opacity="0.46"/><path d="m672 160-32 32" opacity="0.48"/><path d="m704 160-32 32" opacity="0.50"/><path d="m736 160-32 32" opacity="0.52"/><path d="m736 160 32 32" opacity="0.54"/><path d="m768 160 32 32" opacity="0.56"/><path d="m800 160 32 32" opacity="0.58"/><path d="m864 160-32 32" opacity="0.61"/><path d="m864 160 32 32" opacity="0.63"/><path d="m896 160 32 32" opacity="0.65"/><path d="m960 160-32 32" opacity="0.67"/><path d="m992 160-32 32" opacity="0.69"/><path d="m1024 160-32 32" opacity="0.71"/><path d="m1056 160-32 32" opacity="0.73"/><path d="m1088 160-32 32" opacity="0.76"/><path d="m1120 160-32 32" opacity="0.78"/><path d="m1152 160-32 32" opacity="0.80"/><path d="m1184 160-32 32" opacity="0.82"/><path d="m1184 160 32 32" opacity="0.84"/><path d="m1216 160 32 32" opacity="0.86"/><path d="m1280 160-32 32" opacity="0.88"/><path d="m1312 160-32 32" opacity="0.91"/><path d="m1344 160-32 32" opacity="0.93"/><path d="m1344 160 32 32" opacity="0.95"/><path d="m1376 160 32 32" opacity="0.97"/><path d="m1440 160-32 32" opacity="0.99"/><path d="m0 192 32 32" opacity="0.05"/><path d="m64 192-32 32" opacity="0.07"/><path d="m96 192-32 32" opacity="0.09"/><path d="m128 192-32 32" opacity="0.11"/><path d="m160 192-32 32" opacity="0.14"/><path d="m160 192 32 32" opacity="0.16"/><path d="m192 192 32 32" opacity="0.18"/><path d="m256 192-32 32" opacity="0.20"/><path d="m288 192-32 32" opacity="0.22"/><path d="m288 192 32 32" opacity="0.24"/><path d="m320 192 32 32" opacity="0.26"/><path d="m384 192-32 32" opacity="0.29"/><path d="m416 192-32 32" opacity="0.31"/><path d="m416 192 32 32" opacity="0.33"/><path d="m448 192 32 32" opacity="0.35"/><path d="m512 192-32 32" opacity="0.37"/><path d="m544 192-32 32" opacity="0.39"/><path d="m544 192 32 32" opacity="0.41"/><path d="m608 192-32 32" opacity="0.43"/><path d="m640 192-32 32" opacity="0.46"/><path d="m672 192-32 32" opacity="0.48"/><path d="m704 192-32 32" opacity="0.50"/><path d="m704 192 32 32" opacity="0.52"/><path d="m768 192-32 32" opacity="0.54"/><path d="m800 192-32 32" opacity="0.56"/><path d="m800 192 32 32" opacity="0.58"/><path d="m864 192-32 32" opacity="0.61"/><path d="m864 192 32 32" opacity="0.63"/><path d="m896 192 32 32" opacity="0.65"/><path d="m928 192 32 32" opacity="0.67"/><path d="m992 192-32 32" opacity="0.69"/><path d="m1024 192-32 32" opacity="0.71"/><path d="m1024 192 32 32" opacity="0.73"/><path d="m1056 192 32 32" opacity="0.76"/><path d="m1120 192-32 32" opacity="0.78"/><path d="m1152 192-32 32" opacity="0.80"/><path d="m1184 192-32 32" opacity="0.82"/><path d="m1216 192-32 32" opacity="0.84"/><path d="m1216 192 32 32" opacity="0.86"/><path d="m1280 192-32 32" opacity="0.88"/><path d="m1312 192-32 32" opacity="0.91"/><path d="m1344 192-32 32" opacity="0.93"/><path d="m1376 192-32 32" opacity="0.95"/><path d="m1408 192-32 32" opacity="0.97"/><path d="m1440 192-32 32" opacity="0.99"/><path d="m0 224 32 32" opacity="0.05"/><path d="m32 224 32 32" opacity="0.07"/><path d="m64 224 32 32" opacity="0.09"/><path d="m96 224 32 32" opacity="0.11"/><path d="m160 224-32 32" opacity="0.14"/><path d="m192 224-32 32" opacity="0.16"/><path d="m192 224 32 32" opacity="0.18"/><path d="m256 224-32 32" opacity="0.20"/><path d="m288 224-32 32" opacity="0.22"/><path d="m320 224-32 32" opacity="0.24"/><path d="m320 224 32 32" opacity="0.26"/><path d="m384 224-32 32" opacity="0.29"/><path d="m416 224-32 32" opacity="0.31"/><path d="m448 224-32 32" opacity="0.33"/><path d="m480 224-32 32" opacity="0.35"/><path d="m480 224 32 32" opacity="0.37"/><path d="m544 224-32 32" opacity="0.39"/><path d="m544 224 32 32" opacity="0.41"/><path d="m608 224-32 32" opacity="0.43"/><path d="m640 224-32 32" opacity="0.46"/><path d="m672 224-32 32" opacity="0.48"/><path d="m704 224-32 32" opacity="0.50"/><path d="m736 224-32 32" opacity="0.52"/><path d="m736 224 32 32" opacity="0.54"/><path d="m800 224-32 32" opacity="0.56"/><path d="m800 224 32 32" opacity="0.58"/><path d="m832 224 32 32" opacity="0.61"/><path d="m896 224-32 32" opacity="0.63"/><path d="m928 224-32 32" opacity="0.65"/><path d="m960 224-32 32" opacity="0.67"/><path d="m960 224 32 32" opacity="0.69"/><path d="m1024 224-32 32" opacity="0.71"/><path d="m1056 224-32 32" opacity="0.73"/><path d="m1056 224 32 32" opacity="0.76"/><path d="m1088 224 32 32" opacity="0.78"/><path d="m1120 224 32 32" opacity="0.80"/><path d="m1184 224-32 32" opacity="0.82"/><path d="m1184 224 32 32" opacity="0.84"/><path d="m1216 224 32 32" opacity="0.86"/><path d="m1248 224 32 32" opacity="0.88"/><path d="m1312 224-32 32" opacity="0.91"/><path d="m1312 224 32 32" opacity="0.93"/><path d="m1376 224-32 32" opacity="0.95"/><path d="m1376 224 32 32" opacity="0.97"/><path d="m1408 224 32 32" opacity="0.99"/><path d="M32 256 0 288" opacity="0.05"/><path d="m64 256-32 32" opacity="0.07"/><path d="m64 256 32 32" opacity="0.09"/><path d="m128 256-32 32" opacity="0.11"/><path d="m128 256 32 32" opacity="0.14"/><path d="m192 256-32 32" opacity="0.16"/><path d="m224 256-32 32" opacity="0.18"/><path d="m256 256-32 32" opacity="0.20"/><path d="m256 256 32 32" opacity="0.22"/><path d="m320 256-32 32" opacity="0.24"/><path d="m320 256 32 32" opacity="0.26"/><path d="m352 256 32 32" opacity="0.29"/><path d="m416 256-32 32" opacity="0.31"/><path d="m448 256-32 32" opacity="0.33"/><path d="m448 256 32 32" opacity="0.35"/><path d="m512 256-32 32" opacity="0.37"/><path d="m544 256-32 32" opacity="0.39"/><path d="m576 256-32 32" opacity="0.41"/><path d="m608 256-32 32" opacity="0.43"/><path d="m640 256-32 32" opacity="0.46"/><path d="m640 256 32 32" opacity="0.48"/><path d="m704 256-32 32" opacity="0.50"/><path d="m736 256-32 32" opacity="0.52"/><path d="m736 256 32 32" opacity="0.54"/><path d="m768 256 32 32" opacity="0.56"/><path d="m832 256-32 32" opacity="0.58"/><path d="m832 256 32 32" opacity="0.61"/><path d="m864 256 32 32" opacity="0.63"/><path d="m928 256-32 32" opacity="0.65"/><path d="m928 256 32 32" opacity="0.67"/><path d="m992 256-32 32" opacity="0.69"/><path d="m992 256 32 32" opacity="0.71"/><path d="m1056 256-32 32" opacity="0.73"/><path d="m1088 256-32 32" opacity="0.76"/><path d="m1120 256-32 32" opacity="0.78"/><path d="m1152 256-32 32" opacity="0.80"/><path d="m1184 256-32 32" opacity="0.82"/><path d="m1216 256-32 32" opacity="0.84"/><path d="m1216 256 32 32" opacity="0.86"/><path d="m1248 256 32 32" opacity="0.88"/><path d="m1280 256 32 32" opacity="0.91"/><path d="m1344 256-32 32" opacity="0.93"/><path d="m1344 256 32 32" opacity="0.95"/><path d="m1408 256-32 32" opacity="0.97"/><path d="m1408 256 32 32" opacity="0.99"/><path d="M32 288 0 320" opacity="0.05"/><path d="m32 288 32 32" opacity="0.07"/><path d="m64 288 32 32" opacity="0.09"/><path d="m128 288-32 32" opacity="0.11"/><path d="m128 288 32 32" opacity="0.14"/><path d="m192 288-32 32" opacity="0.16"/><path d="m192 288 32 32" opacity="0.18"/><path d="m256 288-32 32" opacity="0.20"/><path d="m288 288-32 32" opacity="0.22"/><path d="m288 288 32 32" opacity="0.24"/><path d="m352 288-32 32" opacity="0.26"/><path d="m384 288-32 32" opacity="0.29"/><path d="m416 288-32 32" opacity="0.31"/><path d="m448 288-32 32" opacity="0.33"/><path d="m480 288-32 32" opacity="0.35"/><path d="m512 288-32 32" opacity="0.37"/><path d="m544 288-32 32" opacity="0.39"/><path d="m544 288 32 32" opacity="0.41"/><path d="m576 288 32 32" opacity="0.43"/><path d="m608 288 32 32" opacity="0.46"/><path d="m672 288-32 32" opacity="0.48"/><path d="m704 288-32 32" opacity="0.50"/><path d="m704 288 32 32" opacity="0.52"/><path d="m768 288-32 32" opacity="0.54"/><path d="m768 288 32 32" opacity="0.56"/><path d="m832 288-32 32" opacity="0.58"/><path d="m832 288 32 32" opacity="0.61"/><path d="m896 288-32 32" opacity="0.63"/><path d="m896 288 32 32" opacity="0.65"/><path d="m960 288-32 32" opacity="0.67"/><path d="m960 288 32 32" opacity="0.69"/><path d="m1024 288-32 32" opacity="0.71"/><path d="m1056 288-32 32" opacity="0.73"/><path d="m1088 288-32 32" opacity="0.76"/><path d="m1088 288 32 32" opacity="0.78"/><path d="m1120 288 32 32" opacity="0.80"/><path d="m1152 288 32 32" opacity="0.82"/><path d="m1216 288-32 32" opacity="0.84"/><path d="m1216 288 32 32" opacity="0.86"/><path d="m1248 288 32 32" opacity="0.88"/><path d="m1312 288-32 32" opacity="0.91"/><path d="m1344 288-32 32" opacity="0.93"/><path d="m1344 288 32 32" opacity="0.95"/><path d="m1408 288-32 32" opacity="0.97"/><path d="m1408 288 32 32" opacity="0.99"/><path d="m0 320 32 32" opacity="0.05"/><path d="m64 320-32 32" opacity="0.07"/><path d="m64 320 32 32" opacity="0.09"/><path d="m128 320-32 32" opacity="0.11"/><path d="m160 320-32 32" opacity="0.14"/><path d="m192 320-32 32" opacity="0.16"/><path d="m192 320 32 32" opacity="0.18"/><path d="m224 320 32 32" opacity="0.20"/><path d="m288 320-32 32" opacity="0.22"/><path d="m288 320 32 32" opacity="0.24"/><path d="m320 320 32 32" opacity="0.26"/><path d="m352 320 32 32" opacity="0.29"/><path d="m384 320 32 32" opacity="0.31"/><path d="m416 320 32 32" opacity="0.33"/><path d="m448 320 32 32" opacity="0.35"/><path d="m480 320 32 32" opacity="0.37"/><path d="m512 320 32 32" opacity="0.39"/><path d="m544 320 32 32" opacity="0.41"/><path d="m608 320-32 32" opacity="0.43"/><path d="m640 320-32 32" opacity="0.46"/><path d="m640 320 32 32" opacity="0.48"/><path d="m704 320-32 32" opacity="0.50"/><path d="m736 320-32 32" opacity="0.52"/><path d="m736 320 32 32" opacity="0.54"/><path d="m768 320 32 32" opacity="0.56"/><path d="m832 320-32 32" opacity="0.58"/><path d="m832 320 32 32" opacity="0.61"/><path d="m896 320-32 32" opacity="0.63"/><path d="m896 320 32 32" opacity="0.65"/><path d="m960 320-32 32" opacity="0.67"/><path d="m960 320 32 32" opacity="0.69"/><path d="m1024 320-32 32" opacity="0.71"/><path d="m1024 320 32 32" opacity="0.73"/><path d="m1056 320 32 32" opacity="0.76"/><path d="m1088 320 32 32" opacity="0.78"/><path d="m1120 320 32 32" opacity="0.80"/><path d="m1184 320-32 32" opacity="0.82"/><path d="m1216 320-32 32" opacity="0.84"/><path d="m1216 320 32 32" opacity="0.86"/><path d="m1280 320-32 32" opacity="0.88"/><path d="m1312 320-32 32" opacity="0.91"/><path d="m1312 320 32 32" opacity="0.93"/><path d="m1344 320 32 32" opacity="0.95"/><path d="m1376 320 32 32" opacity="0.97"/><path d="m1440 320-32 32" opacity="0.99"/><path d="m0 352 32 32" opacity="0.05"/><path d="m64 352-32 32" opacity="0.07"/><path d="m96 352-32 32" opacity="0.09"/><path d="m96 352 32 32" opacity="0.11"/><path d="m160 352-32 32" opacity="0.14"/><path d="m160 352 32 32" opacity="0.16"/><path d="m224 352-32 32" opacity="0.18"/><path d="m224 352 32 32" opacity="0.20"/><path d="m256 352 32 32" opacity="0.22"/><path d="m320 352-32 32" opacity="0.24"/><path d="m320 352 32 32" opacity="0.26"/><path d="m384 352-32 32" opacity="0.29"/><path d="m384 352 32 32" opacity="0.31"/><path d="m448 352-32 32" opacity="0.33"/><path d="m480 352-32 32" opacity="0.35"/><path d="m512 352-32 32" opacity="0.37"/><path d="m512 352 32 32" opacity="0.39"/><path d="m576 352-32 32" opacity="0.41"/><path d="m576 352 32 32" opacity="0.43"/><path d="m608 352 32 32" opacity="0.46"/><path d="m672 352-32 32" opacity="0.48"/><path d="m704 352-32 32" opacity="0.50"/><path d="m736 352-32 32" opacity="0.52"/><path d="m736 352 32 32" opacity="0.54"/><path d="m800 352-32 32" opacity="0.56"/><path d="m800 352 32 32" opacity="0.58"/><path d="m864 352-32 32" opacity="0.61"/><path d="m896 352-32 32" opacity="0.63"/><path d="m928 352-32 32" opacity="0.65"/><path d="m928 352 32 32" opacity="0.67"/><path d="m992 352-32 32" opacity="0.69"/><path d="m1024 352-32 32" opacity="0.71"/><path d="m1056 352-32 32" opacity="0.73"/><path d="m1056 352 32 32" opacity="0.76"/><path d="m1088 352 32 32" opacity="0.78"/><path d="m1120 352 32 32" opacity="0.80"/><path d="m1184 352-32 32" opacity="0.82"/><path d="m1216 352-32 32" opacity="0.84"/><path d="m1216 352 32 32" opacity="0.86"/><path d="m1248 352 32 32" opacity="0.88"/><path d="m1312 352-32 32" opacity="0.91"/><path d="m1312 352 32 32" opacity="0.93"/><path d="m1376 352-32 32" opacity="0.95"/><path d="m1408 352-32 32" opacity="0.97"/><path d="m1440 352-32 32" opacity="0.99"/><path d="M32 384 0 416" opacity="0.05"/><path d="m64 384-32 32" opacity="0.07"/><path d="m96 384-32 32" opacity="0.09"/><path d="m128 384-32 32" opacity="0.11"/><path d="m128 384 32 32" opacity="0.14"/><path d="m192 384-32 32" opacity="0.16"/><path d="m192 384 32 32" opacity="0.18"/><path d="m256 384-32 32" opacity="0.20"/><path d="m288 384-32 32" opacity="0.22"/><path d="m320 384-32 32" opacity="0.24"/><path d="m320 384 32 32" opacity="0.26"/><path d="m352 384 32 32" opacity="0.29"/><path d="m384 384 32 32" opacity="0.31"/><path d="m448 384-32 32" opacity="0.33"/><path d="m448 384 32 32" opacity="0.35"/><path d="m480 384 32 32" opacity="0.37"/><path d="m512 384 32 32" opacity="0.39"/><path d="m576 384-32 32" opacity="0.41"/><path d="m608 384-32 32" opacity="0.43"/><path d="m608 384 32 32" opacity="0.46"/><path d="m672 384-32 32" opacity="0.48"/><path d="m704 384-32 32" opacity="0.50"/><path d="m704 384 32 32" opacity="0.52"/><path d="m736 384 32 32" opacity="0.54"/><path d="m800 384-32 32" opacity="0.56"/><path d="m800 384 32 32" opacity="0.58"/><path d="m832 384 32 32" opacity="0.61"/><path d="m864 384 32 32" opacity="0.63"/><path d="m896 384 32 32" opacity="0.65"/><path d="m960 384-32 32" opacity="0.67"/><path d="m960 384 32 32" opacity="0.69"/><path d="m1024 384-32 32" opacity="0.71"/><path d="m1024 384 32 32" opacity="0.73"/><path d="m1088 384-32 32" opacity="0.76"/><path d="m1088 384 32 32" opacity="0.78"/><path d="m1120 384 32 32" opacity="0.80"/><path d="m1184 384-32 32" opacity="0.82"/><path d="m1216 384-32 32" opacity="0.84"/><path d="m1248 384-32 32" opacity="0.86"/><path d="m1248 384 32 32" opacity="0.88"/><path d="m1280 384 32 32" opacity="0.91"/><path d="m1344 384-32 32" opacity="0.93"/><path d="m1376 384-32 32" opacity="0.95"/><path d="m1408 384-32 32" opacity="0.97"/><path d="m1408 384 32 32" opacity="0.99"/><path d="M32 416 0 448" opacity="0.05"/><path d="m32 416 32 32" opacity="0.07"/><path d="m64 416 32 32" opacity="0.09"/><path d="m96 416 32 32" opacity="0.11"/><path d="m160 416-32 32" opacity="0.14"/><path d="m160 416 32 32" opacity="0.16"/><path d="m224 416-32 32" opacity="0.18"/><path d="m224 416 32 32" opacity="0.20"/><path d="m256 416 32 32" opacity="0.22"/><path d="m288 416 32 32" opacity="0.24"/><path d="m352 416-32 32" opacity="0.26"/><path d="m352 416 32 32" opacity="0.29"/><path d="m384 416 32 32" opacity="0.31"/><path d="m448 416-32 32" opacity="0.33"/><path d="m480 416-32 32" opacity="0.35"/><path d="m512 416-32 32" opacity="0.37"/><path d="m544 416-32 32" opacity="0.39"/><path d="m544 416 32 32" opacity="0.41"/><path d="m576 416 32 32" opacity="0.43"/><path d="m608 416 32 32" opacity="0.46"/><path d="m640 416 32 32" opacity="0.48"/><path d="m672 416 32 32" opacity="0.50"/><path d="m704 416 32 32" opacity="0.52"/><path d="m768 416-32 32" opacity="0.54"/><path d="m768 416 32 32" opacity="0.56"/><path d="m800 416 32 32" opacity="0.58"/><path d="m832 416 32 32" opacity="0.61"/><path d="m864 416 32 32" opacity="0.63"/><path d="m896 416 32 32" opacity="0.65"/><path d="m928 416 32 32" opacity="0.67"/><path d="m960 416 32 32" opacity="0.69"/><path d="m1024 416-32 32" opacity="0.71"/><path d="m1056 416-32 32" opacity="0.73"/><path d="m1056 416 32 32" opacity="0.76"/><path d="m1120 416-32 32" opacity="0.78"/><path d="m1120 416 32 32" opacity="0.80"/><path d="m1184 416-32 32" opacity="0.82"/><path d="m1184 416 32 32" opacity="0.84"/><path d="m1216 416 32 32" opacity="0.86"/><path d="m1280 416-32 32" opacity="0.88"/><path d="m1280 416 32 32" opacity="0.91"/><path d="m1312 416 32 32" opacity="0.93"/><path d="m1376 416-32 32" opacity="0.95"/><path d="m1376 416 32 32" opacity="0.97"/><path d="m1408 416 32 32" opacity="0.99"/><path d="M32 448 0 480" opacity="0.05"/><path d="m32 448 32 32" opacity="0.07"/><path d="m64 448 32 32" opacity="0.09"/><path d="m96 448 32 32" opacity="0.11"/><path d="m160 448-32 32" opacity="0.14"/><path d="m192 448-32 32" opacity="0.16"/><path d="m192 448 32 32" opacity="0.18"/><path d="m256 448-32 32" opacity="0.20"/><path d="m288 448-32 32" opacity="0.22"/><path d="m320 448-32 32" opacity="0.24"/><path d="m352 448-32 32" opacity="0.26"/><path d="m352 448 32 32" opacity="0.29"/><path d="m416 448-32 32" opacity="0.31"/><path d="m448 448-32 32" opacity="0.33"/><path d="m480 448-32 32" opacity="0.35"/><path d="m480 448 32 32" opacity="0.37"/><path d="m544 448-32 32" opacity="0.39"/><path d="m576 448-32 32" opacity="0.41"/><path d="m608 448-32 32" opacity="0.43"/><path d="m640 448-32 32" opacity="0.46"/><path d="m672 448-32 32" opacity="0.48"/><path d="m672 448 32 32" opacity="0.50"/><path d="m704 448 32 32" opacity="0.52"/><path d="m768 448-32 32" opacity="0.54"/><path d="m768 448 32 32" opacity="0.56"/><path d="m832 448-32 32" opacity="0.58"/><path d="m864 448-32 32" opacity="0.61"/><path d="m864 448 32 32" opacity="0.63"/><path d="m896 448 32 32" opacity="0.65"/><path d="m928 448 32 32" opacity="0.67"/><path d="m992 448-32 32" opacity="0.69"/><path d="m992 448 32 32" opacity="0.71"/><path d="m1024 448 32 32" opacity="0.73"/><path d="m1056 448 32 32" opacity="0.76"/><path d="m1120 448-32 32" opacity="0.78"/><path d="m1152 448-32 32" opacity="0.80"/><path d="m1184 448-32 32" opacity="0.82"/><path d="m1184 448 32 32" opacity="0.84"/><path d="m1248 448-32 32" opacity="0.86"/><path d="m1248 448 32 32" opacity="0.88"/><path d="m1280 448 32 32" opacity="0.91"/><path d="m1312 448 32 32" opacity="0.93"/><path d="m1344 448 32 32" opacity="0.95"/><path d="m1408 448-32 32" opacity="0.97"/><path d="m1408 448 32 32" opacity="0.99"/><path d="M32 480 0 512" opacity="0.05"/><path d="m64 480-32 32" opacity="0.07"/><path d="m64 480 32 32" opacity="0.09"/><path d="m96 480 32 32" opacity="0.11"/><path d="m160 480-32 32" opacity="0.14"/><path d="m192 480-32 32" opacity="0.16"/><path d="m224 480-32 32" opacity="0.18"/><path d="m224 480 32 32" opacity="0.20"/><path d="m256 480 32 32" opacity="0.22"/><path d="m320 480-32 32" opacity="0.24"/><path d="m352 480-32 32" opacity="0.26"/><path d="m384 480-32 32" opacity="0.29"/><path d="m384 480 32 32" opacity="0.31"/><path d="m416 480 32 32" opacity="0.33"/><path d="m480 480-32 32" opacity="0.35"/><path d="m480 480 32 32" opacity="0.37"/><path d="m512 480 32 32" opacity="0.39"/><path d="m576 480-32 32" opacity="0.41"/><path d="m576 480 32 32" opacity="0.43"/><path d="m608 480 32 32" opacity="0.46"/><path d="m640 480 32 32" opacity="0.48"/><path d="m704 480-32 32" opacity="0.50"/><path d="m704 480 32 32" opacity="0.52"/><path d="m768 480-32 32" opacity="0.54"/><path d="m800 480-32 32" opacity="0.56"/><path d="m832 480-32 32" opacity="0.58"/><path d="m864 480-32 32" opacity="0.61"/><path d="m896 480-32 32" opacity="0.63"/><path d="m896 480 32 32" opacity="0.65"/><path d="m960 480-32 32" opacity="0.67"/><path d="m992 480-32 32" opacity="0.69"/><path d="m1024 480-32 32" opacity="0.71"/><path d="m1024 480 32 32" opacity="0.73"/><path d="m1056 480 32 32" opacity="0.76"/><path d="m1088 480 32 32" opacity="0.78"/><path d="m1120 480 32 32" opacity="0.80"/><path d="m1152 480 32 32" opacity="0.82"/><path d="m1184 480 32 32" opacity="0.84"/><path d="m1248 480-32 32" opacity="0.86"/><path d="m1248 480 32 32" opacity="0.88"/><path d="m1280 480 32 32" opacity="0.91"/><path d="m1344 480-32 32" opacity="0.93"/><path d="m1376 480-32 32" opacity="0.95"/><path d="m1376 480 32 32" opacity="0.97"/><path d="m1408 480 32 32" opacity="0.99"/><path d="m0 512 32 32" opacity="0.05"/><path d="m32 512 32 32" opacity="0.07"/><path d="m64 512 32 32" opacity="0.09"/><path d="m96 512 32 32" opacity="0.11"/><path d="m128 512 32 32" opacity="0.14"/><path d="m192 512-32 32" opacity="0.16"/><path d="m192 512 32 32" opacity="0.18"/><path d="m224 512 32 32" opacity="0.20"/><path d="m288 512-32 32" opacity="0.22"/><path d="m320 512-32 32" opacity="0.24"/><path d="m352 512-32 32" opacity="0.26"/><path d="m352 512 32 32" opacity="0.29"/><path d="m384 512 32 32" opacity="0.31"/><path d="m448 512-32 32" opacity="0.33"/><path d="m480 512-32 32" opacity="0.35"/><path d="m512 512-32 32" opacity="0.37"/><path d="m512 512 32 32" opacity="0.39"/><path d="m576 512-32 32" opacity="0.41"/><path d="m576 512 32 32" opacity="0.43"/><path d="m608 512 32 32" opacity="0.46"/><path d="m672 512-32 32" opacity="0.48"/><path d="m672 512 32 32" opacity="0.50"/><path d="m704 512 32 32" opacity="0.52"/><path d="m736 512 32 32" opacity="0.54"/><path d="m800 512-32 32" opacity="0.56"/><path d="m832 512-32 32" opacity="0.58"/><path d="m832 512 32 32" opacity="0.61"/><path d="m896 512-32 32" opacity="0.63"/><path d="m928 512-32 32" opacity="0.65"/><path d="m960 512-32 32" opacity="0.67"/><path d="m992 512-32 32" opacity="0.69"/><path d="m992 512 32 32" opacity="0.71"/><path d="m1056 512-32 32" opacity="0.73"/><path d="m1088 512-32 32" opacity="0.76"/><path d="m1088 512 32 32" opacity="0.78"/><path d="m1120 512 32 32" opacity="0.80"/><path d="m1184 512-32 32" opacity="0.82"/><path d="m1216 512-32 32" opacity="0.84"/><path d="m1216 512 32 32" opacity="0.86"/><path d="m1280 512-32 32" opacity="0.88"/><path d="m1312 512-32 32" opacity="0.91"/><path d="m1312 512 32 32" opacity="0.93"/><path d="m1344 512 32 32" opacity="0.95"/><path d="m1408 512-32 32" opacity="0.97"/><path d="m1440 512-32 32" opacity="0.99"/><path d="m0 544 32 32" opacity="0.05"/><path d="m32 544 32 32" opacity="0.07"/><path d="m64 544 32 32" opacity="0.09"/><path d="m128 544-32 32" opacity="0.11"/><path d="m128 544 32 32" opacity="0.14"/><path d="m192 544-32 32" opacity="0.16"/><path d="m224 544-32 32" opacity="0.18"/><path d="m256 544-32 32" opacity="0.20"/><path d="m288 544-32 32" opacity="0.22"/><path d="m288 544 32 32" opacity="0.24"/><path d="m352 544-32 32" opacity="0.26"/><path d="m352 544 32 32" opacity="0.29"/><path d="m384 544 32 32" opacity="0.31"/><path d="m416 544 32 32" opacity="0.33"/><path d="m480 544-32 32" opacity="0.35"/><path d="m480 544 32 32" opacity="0.37"/><path d="m544 544-32 32" opacity="0.39"/><path d="m544 544 32 32" opacity="0.41"/><path d="m608 544-32 32" opacity="0.43"/><path d="m608 544 32 32" opacity="0.46"/><path d="m640 544 32 32" opacity="0.48"/><path d="m672 544 32 32" opacity="0.50"/><path d="m704 544 32 32" opacity="0.52"/><path d="m768 544-32 32" opacity="0.54"/><path d="m800 544-32 32" opacity="0.56"/><path d="m800 544 32 32" opacity="0.58"/><path d="m864 544-32 32" opacity="0.61"/><path d="m896 544-32 32" opacity="0.63"/><path d="m896 544 32 32" opacity="0.65"/><path d="m928 544 32 32" opacity="0.67"/><path d="m960 544 32 32" opacity="0.69"/><path d="m1024 544-32 32" opacity="0.71"/><path d="m1024 544 32 32" opacity="0.73"/><path d="m1088 544-32 32" opacity="0.76"/><path d="m1120 544-32 32" opacity="0.78"/><path d="m1152 544-32 32" opacity="0.80"/><path d="m1152 544 32 32" opacity="0.82"/><path d="m1216 544-32 32" opacity="0.84"/><path d="m1248 544-32 32" opacity="0.86"/><path d="m1280 544-32 32" opacity="0.88"/><path d="m1312 544-32 32" opacity="0.91"/><path d="m1344 544-32 32" opacity="0.93"/><path d="m1344 544 32 32" opacity="0.95"/><path d="m1408 544-32 32" opacity="0.97"/><path d="m1408 544 32 32" opacity="0.99"/><path d="m0 576 32 32" opacity="0.05"/><path d="m32 576 32 32" opacity="0.07"/><path d="m96 576-32 32" opacity="0.09"/><path d="m96 576 32 32" opacity="0.11"/><path d="m160 576-32 32" opacity="0.14"/><path d="m192 576-32 32" opacity="0.16"/><path d="m224 576-32 32" opacity="0.18"/><path d="m256 576-32 32" opacity="0.20"/><path d="m256 576 32 32" opacity="0.22"/><path d="m320 576-32 32" opacity="0.24"/><path d="m320 576 32 32" opacity="0.26"/><path d="m384 576-32 32" opacity="0.29"/><path d="m384 576 32 32" opacity="0.31"/><path d="m416 576 32 32" opacity="0.33"/><path d="m448 576 32 32" opacity="0.35"/><path d="m512 576-32 32" opacity="0.37"/><path d="m544 576-32 32" opacity="0.39"/><path d="m544 576 32 32" opacity="0.41"/><path d="m576 576 32 32" opacity="0.43"/><path d="m608 576 32 32" opacity="0.46"/><path d="m672 576-32 32" opacity="0.48"/><path d="m672 576 32 32" opacity="0.50"/><path d="m704 576 32 32" opacity="0.52"/><path d="m736 576 32 32" opacity="0.54"/><path d="m768 576 32 32" opacity="0.56"/><path d="m832 576-32 32" opacity="0.58"/><path d="m832 576 32 32" opacity="0.61"/><path d="m896 576-32 32" opacity="0.63"/><path d="m928 576-32 32" opacity="0.65"/><path d="m960 576-32 32" opacity="0.67"/><path d="m960 576 32 32" opacity="0.69"/><path d="m1024 576-32 32" opacity="0.71"/><path d="m1024 576 32 32" opacity="0.73"/><path d="m1056 576 32 32" opacity="0.76"/><path d="m1120 576-32 32" opacity="0.78"/><path d="m1152 576-32 32" opacity="0.80"/><path d="m1152 576 32 32" opacity="0.82"/><path d="m1184 576 32 32" opacity="0.84"/><path d="m1248 576-32 32" opacity="0.86"/><path d="m1248 576 32 32" opacity="0.88"/><path d="m1280 576 32 32" opacity="0.91"/><path d="m1344 576-32 32" opacity="0.93"/><path d="m1376 576-32 32" opacity="0.95"/><path d="m1408 576-32 32" opacity="0.97"/><path d="m1408 576 32 32" opacity="0.99"/><path d="m0 608 32 32" opacity="0.05"/><path d="m32 608 32 32" opacity="0.07"/><path d="m96 608-32 32" opacity="0.09"/><path d="m96 608 32 32" opacity="0.11"/><path d="m128 608 32 32" opacity="0.14"/><path d="m160 608 32 32" opacity="0.16"/><path d="m224 608-32 32" opacity="0.18"/><path d="m256 608-32 32" opacity="0.20"/><path d="m288 608-32 32" opacity="0.22"/><path d="m320 608-32 32" opacity="0.24"/><path d="m320 608 32 32" opacity="0.26"/><path d="m384 608-32 32" opacity="0.29"/><path d="m384 608 32 32" opacity="0.31"/><path d="m416 608 32 32" opacity="0.33"/><path d="m480 608-32 32" opacity="0.35"/><path d="m512 608-32 32" opacity="0.37"/><path d="m512 608 32 32" opacity="0.39"/><path d="m544 608 32 32" opacity="0.41"/><path d="m576 608 32 32" opacity="0.43"/><path d="m640 608-32 32" opacity="0.46"/><path d="m672 608-32 32" opacity="0.48"/><path d="m704 608-32 32" opacity="0.50"/><path d="m704 608 32 32" opacity="0.52"/><path d="m768 608-32 32" opacity="0.54"/><path d="m768 608 32 32" opacity="0.56"/><path d="m800 608 32 32" opacity="0.58"/><path d="m864 608-32 32" opacity="0.61"/><path d="m896 608-32 32" opacity="0.63"/><path d="m928 608-32 32" opacity="0.65"/><path d="m928 608 32 32" opacity="0.67"/><path d="m992 608-32 32" opacity="0.69"/><path d="m992 608 32 32" opacity="0.71"/><path d="m1056 608-32 32" opacity="0.73"/><path d="m1088 608-32 32" opacity="0.76"/><path d="m1120 608-32 32" opacity="0.78"/><path d="m1152 608-32 32" opacity="0.80"/><path d="m1184 608-32 32" opacity="0.82"/><path d="m1216 608-32 32" opacity="0.84"/><path d="m1248 608-32 32" opacity="0.86"/><path d="m1280 608-32 32" opacity="0.88"/><path d="m1280 608 32 32" opacity="0.91"/><path d="m1312 608 32 32" opacity="0.93"/><path d="m1344 608 32 32" opacity="0.95"/><path d="m1408 608-32 32" opacity="0.97"/><path d="m1440 608-32 32" opacity="0.99"/><path d="M32 640 0 672" opacity="0.05"/><path d="m32 640 32 32" opacity="0.07"/><path d="m64 640 32 32" opacity="0.09"/><path d="m128 640-32 32" opacity="0.11"/><path d="m160 640-32 32" opacity="0.14"/><path d="m192 640-32 32" opacity="0.16"/><path d="m192 640 32 32" opacity="0.18"/><path d="m224 640 32 32" opacity="0.20"/><path d="m288 640-32 32" opacity="0.22"/><path d="m320 640-32 32" opacity="0.24"/><path d="m320 640 32 32" opacity="0.26"/><path d="m384 640-32 32" opacity="0.29"/><path d="m416 640-32 32" opacity="0.31"/><path d="m416 640 32 32" opacity="0.33"/><path d="m480 640-32 32" opacity="0.35"/><path d="m512 640-32 32" opacity="0.37"/><path d="m544 640-32 32" opacity="0.39"/><path d="m544 640 32 32" opacity="0.41"/><path d="m608 640-32 32" opacity="0.43"/><path d="m608 640 32 32" opacity="0.46"/><path d="m672 640-32 32" opacity="0.48"/><path d="m672 640 32 32" opacity="0.50"/><path d="m704 640 32 32" opacity="0.52"/><path d="m768 640-32 32" opacity="0.54"/><path d="m768 640 32 32" opacity="0.56"/><path d="m800 640 32 32" opacity="0.58"/><path d="m864 640-32 32" opacity="0.61"/><path d="m864 640 32 32" opacity="0.63"/><path d="m928 640-32 32" opacity="0.65"/><path d="m928 640 32 32" opacity="0.67"/><path d="m960 640 32 32" opacity="0.69"/><path d="m992 640 32 32" opacity="0.71"/><path d="m1024 640 32 32" opacity="0.73"/><path d="m1056 640 32 32" opacity="0.76"/><path d="m1120 640-32 32" opacity="0.78"/><path d="m1152 640-32 32" opacity="0.80"/><path d="m1152 640 32 32" opacity="0.82"/><path d="m1216 640-32 32" opacity="0.84"/><path d="m1216 640 32 32" opacity="0.86"/><path d="m1248 640 32 32" opacity="0.88"/><path d="m1280 640 32 32" opacity="0.91"/><path d="m1344 640-32 32" opacity="0.93"/><path d="m1344 640 32 32" opacity="0.95"/><path d="m1376 640 32 32" opacity="0.97"/><path d="m1440 640-32 32" opacity="0.99"/><path d="m0 672 32 32" opacity="0.05"/><path d="m32 672 32 32" opacity="0.07"/><path d="m96 672-32 32" opacity="0.09"/><path d="m96 672 32 32" opacity="0.11"/><path d="m128 672 32 32" opacity="0.14"/><path d="m192 672-32 32" opacity="0.16"/><path d="m192 672 32 32" opacity="0.18"/><path d="m224 672 32 32" opacity="0.20"/><path d="m256 672 32 32" opacity="0.22"/><path d="m320 672-32 32" opacity="0.24"/><path d="m320 672 32 32" opacity="0.26"/><path d="m352 672 32 32" opacity="0.29"/><path d="m384 672 32 32" opacity="0.31"/><path d="m448 672-32 32" opacity="0.33"/><path d="m480 672-32 32" opacity="0.35"/><path d="m480 672 32 32" opacity="0.37"/><path d="m512 672 32 32" opacity="0.39"/><path d="m576 672-32 32" opacity="0.41"/><path d="m576 672 32 32" opacity="0.43"/><path d="m640 672-32 32" opacity="0.46"/><path d="m640 672 32 32" opacity="0.48"/><path d="m704 672-32 32" opacity="0.50"/><path d="m736 672-32 32" opacity="0.52"/><path d="m736 672 32 32" opacity="0.54"/><path d="m800 672-32 32" opacity="0.56"/><path d="m800 672 32 32" opacity="0.58"/><path d="m864 672-32 32" opacity="0.61"/><path d="m896 672-32 32" opacity="0.63"/><path d="m928 672-32 32" opacity="0.65"/><path d="m960 672-32 32" opacity="0.67"/><path d="m960 672 32 32" opacity="0.69"/><path d="m1024 672-32 32" opacity="0.71"/><path d="m1024 672 32 32" opacity="0.73"/><path d="m1088 672-32 32" opacity="0.76"/><path d="m1088 672 32 32" opacity="0.78"/><path d="m1120 672 32 32" opacity="0.80"/><path d="m1184 672-32 32" opacity="0.82"/><path d="m1184 672 32 32" opacity="0.84"/><path d="m1216 672 32 32" opacity="0.86"/><path d="m1248 672 32 32" opacity="0.88"/><path d="m1280 672 32 32" opacity="0.91"/><path d="m1312 672 32 32" opacity="0.93"/><path d="m1376 672-32 32" opacity="0.95"/><path d="m1376 672 32 32" opacity="0.97"/><path d="m1408 672 32 32" opacity="0.99"/><path d="M32 704 0 736" opacity="0.05"/><path d="m64 704-32 32" opacity="0.07"/><path d="m96 704-32 32" opacity="0.09"/><path d="m96 704 32 32" opacity="0.11"/><path d="m128 704 32 32" opacity="0.14"/><path d="m192 704-32 32" opacity="0.16"/><path d="m192 704 32 32" opacity="0.18"/><path d="m256 704-32 32" opacity="0.20"/><path d="m288 704-32 32" opacity="0.22"/><path d="m320 704-32 32" opacity="0.24"/><path d="m320 704 32 32" opacity="0.26"/><path d="m352 704 32 32" opacity="0.29"/><path d="m416 704-32 32" opacity="0.31"/><path d="m416 704 32 32" opacity="0.33"/><path d="m480 704-32 32" opacity="0.35"/><path d="m480 704 32 32" opacity="0.37"/><path d="m512 704 32 32" opacity="0.39"/><path d="m576 704-32 32" opacity="0.41"/><path d="m576 704 32 32" opacity="0.43"/><path d="m608 704 32 32" opacity="0.46"/><path d="m640 704 32 32" opacity="0.48"/><path d="m672 704 32 32" opacity="0.50"/><path d="m704 704 32 32" opacity="0.52"/><path d="m768 704-32 32" opacity="0.54"/><path d="m800 704-32 32" opacity="0.56"/><path d="m832 704-32 32" opacity="0.58"/><path d="m832 704 32 32" opacity="0.61"/><path d="m864 704 32 32" opacity="0.63"/><path d="m928 704-32 32" opacity="0.65"/><path d="m960 704-32 32" opacity="0.67"/><path d="m992 704-32 32" opacity="0.69"/><path d="m992 704 32 32" opacity="0.71"/><path d="m1024 704 32 32" opacity="0.73"/><path d="m1088 704-32 32" opacity="0.76"/><path d="m1120 704-32 32" opacity="0.78"/><path d="m1152 704-32 32" opacity="0.80"/><path d="m1152 704 32 32" opacity="0.82"/><path d="m1184 704 32 32" opacity="0.84"/><path d="m1248 704-32 32" opacity="0.86"/><path d="m1280 704-32 32" opacity="0.88"/><path d="m1312 704-32 32" opacity="0.91"/><path d="m1344 704-32 32" opacity="0.93"/><path d="m1376 704-32 32" opacity="0.95"/><path d="m1408 704-32 32" opacity="0.97"/><path d="m1440 704-32 32" opacity="0.99"/><path d="m0 736 32 32" opacity="0.05"/><path d="m64 736-32 32" opacity="0.07"/><path d="m64 736 32 32" opacity="0.09"/><path d="m128 736-32 32" opacity="0.11"/><path d="m128 736 32 32" opacity="0.14"/><path d="m160 736 32 32" opacity="0.16"/><path d="m192 736 32 32" opacity="0.18"/><path d="m256 736-32 32" opacity="0.20"/><path d="m288 736-32 32" opacity="0.22"/><path d="m288 736 32 32" opacity="0.24"/><path d="m352 736-32 32" opacity="0.26"/><path d="m352 736 32 32" opacity="0.29"/><path d="m384 736 32 32" opacity="0.31"/><path d="m416 736 32 32" opacity="0.33"/><path d="m480 736-32 32" opacity="0.35"/><path d="m512 736-32 32" opacity="0.37"/><path d="m544 736-32 32" opacity="0.39"/><path d="m544 736 32 32" opacity="0.41"/><path d="m576 736 32 32" opacity="0.43"/><path d="m608 736 32 32" opacity="0.46"/><path d="m640 736 32 32" opacity="0.48"/><path d="m672 736 32 32" opacity="0.50"/><path d="m704 736 32 32" opacity="0.52"/><path d="m768 736-32 32" opacity="0.54"/><path d="m768 736 32 32" opacity="0.56"/><path d="m832 736-32 32" opacity="0.58"/><path d="m864 736-32 32" opacity="0.61"/><path d="m864 736 32 32" opacity="0.63"/><path d="m928 736-32 32" opacity="0.65"/><path d="m928 736 32 32" opacity="0.67"/><path d="m960 736 32 32" opacity="0.69"/><path d="m992 736 32 32" opacity="0.71"/><path d="m1056 736-32 32" opacity="0.73"/><path d="m1056 736 32 32" opacity="0.76"/><path d="m1120 736-32 32" opacity="0.78"/><path d="m1152 736-32 32" opacity="0.80"/><path d="m1184 736-32 32" opacity="0.82"/><path d="m1184 736 32 32" opacity="0.84"/><path d="m1248 736-32 32" opacity="0.86"/><path d="m1248 736 32 32" opacity="0.88"/><path d="m1312 736-32 32" opacity="0.91"/><path d="m1312 736 32 32" opacity="0.93"/><path d="m1344 736 32 32" opacity="0.95"/><path d="m1376 736 32 32" opacity="0.97"/><path d="m1440 736-32 32" opacity="0.99"/><path d="M32 768 0 800" opacity="0.05"/><path d="m64 768-32 32" opacity="0.07"/><path d="m96 768-32 32" opacity="0.09"/><path d="m96 768 32 32" opacity="0.11"/><path d="m160 768-32 32" opacity="0.14"/><path d="m192 768-32 32" opacity="0.16"/><path d="m192 768 32 32" opacity="0.18"/><path d="m256 768-32 32" opacity="0.20"/><path d="m256 768 32 32" opacity="0.22"/><path d="m288 768 32 32" opacity="0.24"/><path d="m320 768 32 32" opacity="0.26"/><path d="m352 768 32 32" opacity="0.29"/><path d="m384 768 32 32" opacity="0.31"/><path d="m448 768-32 32" opacity="0.33"/><path d="m480 768-32 32" opacity="0.35"/><path d="m512 768-32 32" opacity="0.37"/><path d="m512 768 32 32" opacity="0.39"/><path d="m576 768-32 32" opacity="0.41"/><path d="m608 768-32 32" opacity="0.43"/><path d="m640 768-32 32" opacity="0.46"/><path d="m640 768 32 32" opacity="0.48"/><path d="m704 768-32 32" opacity="0.50"/><path d="m704 768 32 32" opacity="0.52"/><path d="m768 768-32 32" opacity="0.54"/><path d="m800 768-32 32" opacity="0.56"/><path d="m832 768-32 32" opacity="0.58"/><path d="m864 768-32 32" opacity="0.61"/><path d="m896 768-32 32" opacity="0.63"/><path d="m928 768-32 32" opacity="0.65"/><path d="m928 768 32 32" opacity="0.67"/><path d="m960 768 32 32" opacity="0.69"/><path d="m1024 768-32 32" opacity="0.71"/><path d="m1056 768-32 32" opacity="0.73"/><path d="m1088 768-32 32" opacity="0.76"/><path d="m1088 768 32 32" opacity="0.78"/><path d="m1120 768 32 32" opacity="0.80"/><path d="m1184 768-32 32" opacity="0.82"/><path d="m1184 768 32 32" opacity="0.84"/><path d="m1248 768-32 32" opacity="0.86"/><path d="m1248 768 32 32" opacity="0.88"/><path d="m1280 768 32 32" opacity="0.91"/><path d="m1312 768 32 32" opacity="0.93"/><path d="m1376 768-32 32" opacity="0.95"/><path d="m1408 768-32 32" opacity="0.97"/><path d="m1440 768-32 32" opacity="0.99"/><path d="M32 800 0 832" opacity="0.05"/><path d="m64 800-32 32" opacity="0.07"/><path d="m96 800-32 32" opacity="0.09"/><path d="m128 800-32 32" opacity="0.11"/><path d="m128 800 32 32" opacity="0.14"/><path d="m160 800 32 32" opacity="0.16"/><path d="m192 800 32 32" opacity="0.18"/><path d="m224 800 32 32" opacity="0.20"/><path d="m288 800-32 32" opacity="0.22"/><path d="m320 800-32 32" opacity="0.24"/><path d="m352 800-32 32" opacity="0.26"/><path d="m352 800 32 32" opacity="0.29"/><path d="m416 800-32 32" opacity="0.31"/><path d="m416 800 32 32" opacity="0.33"/><path d="m448 800 32 32" opacity="0.35"/><path d="m480 800 32 32" opacity="0.37"/><path d="m544 800-32 32" opacity="0.39"/><path d="m544 800 32 32" opacity="0.41"/><path d="m608 800-32 32" opacity="0.43"/><path d="m608 800 32 32" opacity="0.46"/><path d="m640 800 32 32" opacity="0.48"/><path d="m672 800 32 32" opacity="0.50"/><path d="m736 800-32 32" opacity="0.52"/><path d="m736 800 32 32" opacity="0.54"/><path d="m768 800 32 32" opacity="0.56"/><path d="m832 800-32 32" opacity="0.58"/><path d="m864 800-32 32" opacity="0.61"/><path d="m864 800 32 32" opacity="0.63"/><path d="m928 800-32 32" opacity="0.65"/><path d="m960 800-32 32" opacity="0.67"/><path d="m960 800 32 32" opacity="0.69"/><path d="m992 800 32 32" opacity="0.71"/><path d="m1024 800 32 32" opacity="0.73"/><path d="m1088 800-32 32" opacity="0.76"/><path d="m1088 800 32 32" opacity="0.78"/><path d="m1152 800-32 32" opacity="0.80"/><path d="m1184 800-32 32" opacity="0.82"/><path d="m1216 800-32 32" opacity="0.84"/><path d="m1248 800-32 32" opacity="0.86"/><path d="m1280 800-32 32" opacity="0.88"/><path d="m1280 800 32 32" opacity="0.91"/><path d="m1312 800 32 32" opacity="0.93"/><path d="m1344 800 32 32" opacity="0.95"/><path d="m1376 800 32 32" opacity="0.97"/><path d="m1408 800 32 32" opacity="0.99"/></g></svg>