<svg xmlns="http://www.w3.org/2000/svg" xmlns:xlink="http://www.w3.org/1999/xlink" width="1200" height="800" viewBox="-2.5147185 -1.0336275 21.794227 6.201765"><use xlink:href="#b" width="100%" height="100%" x="604.46722" y="461.6857" fill="#fff" transform="translate(-15.81 -255.691)scale(.35278)"/><use xlink:href="#c" width="100%" height="100%" x="63.51625" y="72.4402" fill="#5e5e61" transform="translate(-15.81 -255.691)scale(.35278)"/><use xlink:href="#d" width="100%" height="100%" x="87.3641" y="72.4402" fill="#5e5e61" transform="translate(-15.81 -255.691)scale(.35278)"/><use xlink:href="#d" width="100%" height="100%" x="85.5401" y="83.4412" fill="#5e5e61" transform="translate(-15.81 -255.691)scale(.35278)"/><use xlink:href="#d" width="100%" height="100%" x="62.8826" y="94.4422" fill="#5e5e61" transform="translate(-15.81 -255.691)scale(.35278)"/><use xlink:href="#c" width="100%" height="100%" x="63.0023" y="105.4432" fill="#5e5e61" transform="translate(-15.81 -255.691)scale(.35278)"/><use xlink:href="#d" width="100%" height="100%" x="64.2886" y="105.4432" fill="#5e5e61" transform="translate(-15.81 -255.691)scale(.35278)"/><use xlink:href="#d" width="100%" height="100%" x="65.0201" y="116.4442" fill="#5e5e61" transform="translate(-15.81 -255.691)scale(.35278)"/><use xlink:href="#c" width="100%" height="100%" x="44.6217" y="182.4502" fill="#5e5e61" transform="translate(-15.81 -255.691)scale(.35278)"/><use xlink:href="#e" width="100%" height="100%" x="246.70285" y="61.8975" fill="#ee3023" transform="translate(-15.81 -255.691)scale(.35278)"/><use xlink:href="#d" width="100%" height="100%" x="308.39111" y="73.3545" fill="#5e5e61" transform="translate(-15.81 -255.691)scale(.35278)"/><use xlink:href="#e" width="100%" height="100%" x="231.27486" y="101.769" fill="#ee3023" transform="translate(-15.81 -255.691)scale(.35278)"/><use xlink:href="#d" width="100%" height="100%" x="261.43259" y="113.226" fill="#5e5e61" transform="translate(-15.81 -255.691)scale(.35278)"/><use xlink:href="#e" width="100%" height="100%" x="222.4351" y="141.6405" fill="#ee3023" transform="translate(-15.81 -255.691)scale(.35278)"/><path fill="#ee3023" d="M4.134 2.067a2.067 2.067 0 1 1-4.134 0 2.067 2.067 0 0 1 4.134 0"/><path fill="#fff" d="M2.084 3.22c-.568.002-1.16-.483-1.162-1.261-.002-.515.276-1.01.631-1.305.346-.286.82-.47 1.25-.472a.5.5 0 0 1 .15.017.86.86 0 0 0-.675.825q0 .021.003.034c.63.153.915.533.917 1.058A1.106 1.106 0 0 1 2.084 3.22"/><path fill="#ee3023" d="m5.47 2.923-.633-1.508h.413l.394 1.002.382-1.002h.395l-.614 1.508zm2.05-.762a.7.7 0 0 0-.022-.178.4.4 0 0 0-.065-.146.3.3 0 0 0-.107-.098.3.3 0 0 0-.147-.036.3.3 0 0 0-.147.036.3.3 0 0 0-.106.098.4.4 0 0 0-.066.146.7.7 0 0 0-.022.178.7.7 0 0 0 .022.181.5.5 0 0 0 .064.146.3.3 0 0 0 .255.135.29.29 0 0 0 .254-.135.5.5 0 0 0 .065-.146.7.7 0 0 0 .022-.18m.382.001a1 1 0 0 1-.045.29.8.8 0 0 1-.135.255.66.66 0 0 1-.543.25.67.67 0 0 1-.543-.25.8.8 0 0 1-.134-.255.96.96 0 0 1 0-.578.8.8 0 0 1 .134-.252.7.7 0 0 1 .226-.178.7.7 0 0 1 .317-.067.68.68 0 0 1 .541.246q.092.11.137.251t.045.288m1.166-.416a.6.6 0 0 0-.21-.044.34.34 0 0 0-.29.14.5.5 0 0 0-.068.144.6.6 0 0 0-.024.165.8.8 0 0 0 .02.18.5.5 0 0 0 .063.152.3.3 0 0 0 .105.103q.064.04.152.04a.3.3 0 0 0 .146-.04.26.26 0 0 0 .106-.092zm.03 1.176-.015-.115a.5.5 0 0 1-.14.104.56.56 0 0 1-.48-.02.6.6 0 0 1-.2-.175.8.8 0 0 1-.123-.254 1 1 0 0 1-.042-.3 1 1 0 0 1 .043-.288.8.8 0 0 1 .133-.252.66.66 0 0 1 .538-.245q.118 0 .256.043V.836h.388v2.087zm1.45-.707-.13.011a2 2 0 0 0-.125.02q-.126.026-.175.087a.2.2 0 0 0-.049.133q0 .075.055.12a.24.24 0 0 0 .156.045.4.4 0 0 0 .147-.03.4.4 0 0 0 .12-.079zm.031.706-.015-.113a.4.4 0 0 1-.16.11.56.56 0 0 1-.4.006.46.46 0 0 1-.313-.446.43.43 0 0 1 .163-.344.7.7 0 0 1 .173-.097q.097-.038.204-.057.075-.014.165-.023l.149-.014v-.022q0-.125-.065-.178a.27.27 0 0 0-.177-.054.55.55 0 0 0-.316.102l-.059.042-.128-.272a1 1 0 0 1 .202-.114q.074-.03.166-.05a.9.9 0 0 1 .427.013.46.46 0 0 1 .296.281.7.7 0 0 1 .042.26v.97zm1.553-1.742a.5.5 0 0 0-.22-.044q-.08 0-.136.05-.054.048-.054.157v.072h.325v.313h-.322v1.195h-.388V1.728h-.2v-.313h.2v-.081q0-.146.037-.249a.41.41 0 0 1 .263-.26q.09-.03.198-.03a.9.9 0 0 1 .34.063zm1.057.981a.7.7 0 0 0-.022-.178.4.4 0 0 0-.065-.146.3.3 0 0 0-.107-.098.3.3 0 0 0-.147-.036.3.3 0 0 0-.147.036.3.3 0 0 0-.106.098.4.4 0 0 0-.066.146.7.7 0 0 0 0 .36.5.5 0 0 0 .064.145.3.3 0 0 0 .106.1.3.3 0 0 0 .15.035.29.29 0 0 0 .253-.135.5.5 0 0 0 .065-.146.7.7 0 0 0 .022-.18m.382.001a1 1 0 0 1-.046.29.8.8 0 0 1-.134.255.66.66 0 0 1-.543.25.67.67 0 0 1-.543-.25.8.8 0 0 1-.134-.255 1 1 0 0 1-.045-.29 1 1 0 0 1 .045-.288.8.8 0 0 1 .134-.252.7.7 0 0 1 .226-.178.7.7 0 0 1 .317-.067.68.68 0 0 1 .541.246q.091.11.136.251t.046.288m1.204.76v-.86a.43.43 0 0 0-.071-.266.24.24 0 0 0-.2-.094.3.3 0 0 0-.168.047.7.7 0 0 0-.133.103v1.07h-.388V1.415h.353l.02.119a.7.7 0 0 1 .204-.115.67.67 0 0 1 .45-.005.4.4 0 0 1 .171.114q.072.078.111.203.04.126.04.3v.892zm1.596-.935a.4.4 0 0 0-.033-.136.3.3 0 0 0-.067-.094.26.26 0 0 0-.177-.07.3.3 0 0 0-.192.075.32.32 0 0 0-.107.225zm-.585.278q.012.192.119.276a.43.43 0 0 0 .276.084.8.8 0 0 0 .27-.05 1 1 0 0 0 .092-.043.3.3 0 0 0 .056-.042l.104.317-.071.042a1 1 0 0 1-.12.05 1.3 1.3 0 0 1-.382.058.8.8 0 0 1-.28-.047.6.6 0 0 1-.233-.146.7.7 0 0 1-.16-.245.9.9 0 0 1-.06-.35q0-.191.055-.339a.66.66 0 0 1 .643-.454.7.7 0 0 1 .266.048q.123.046.212.145t.14.255.052.373v.068zm0 0"/></svg>